<svg
    xmlns="http://www.w3.org/2000/svg"
>
    <g viewBox="0 0 24 24" id="edit" fill="none" stroke-width="1.5" stroke-linecap="round" stroke-linejoin="round">
        <path d="M21.2799 6.40005L11.7399 15.94C10.7899 16.89 7.96987 17.33 7.33987 16.7C6.70987 16.07 7.13987 13.25 8.08987 12.3L17.6399 2.75002C17.8754 2.49308 18.1605 2.28654 18.4781 2.14284C18.7956 1.99914 19.139 1.92124 19.4875 1.9139C19.8359 1.90657 20.1823 1.96991 20.5056 2.10012C20.8289 2.23033 21.1225 2.42473 21.3686 2.67153C21.6147 2.91833 21.8083 3.21243 21.9376 3.53609C22.0669 3.85976 22.1294 4.20626 22.1211 4.55471C22.1128 4.90316 22.0339 5.24635 21.8894 5.5635C21.7448 5.88065 21.5375 6.16524 21.2799 6.40005V6.40005Z"/>
        <path d="M11 4H6C4.93913 4 3.92178 4.42142 3.17163 5.17157C2.42149 5.92172 2 6.93913 2 8V18C2 19.0609 2.42149 20.0783 3.17163 20.8284C3.92178 21.5786 4.93913 22 6 22H17C19.21 22 20 20.2 20 18V13"/>
    </g>
    <g id="trashcan" fill="none">
        <path fill-rule="evenodd" clip-rule="evenodd" d="M15.7628 9H7.63719C7.18864 9 6.82501 9.37295 6.82501 9.833V16.5C6.82501 17.8807 7.91632 19 9.26251 19H14.1375C14.784 19 15.404 18.7366 15.8611 18.2678C16.3182 17.7989 16.575 17.163 16.575 16.5V9.833C16.575 9.37295 16.2114 9 15.7628 9Z" stroke-width="1.5" stroke-linecap="round" stroke-linejoin="round"/>
        <path d="M14.625 7L13.9191 5.553C13.7541 5.21427 13.4167 5.0002 13.0475 5H10.3526C9.98338 5.0002 9.64596 5.21427 9.48092 5.553L8.77502 7H14.625Z" stroke-width="1.5" stroke-linecap="round" stroke-linejoin="round"/>
        <path d="M10.8247 12.333C10.8247 11.9188 10.4889 11.583 10.0747 11.583C9.66047 11.583 9.32469 11.9188 9.32469 12.333H10.8247ZM9.32469 15.666C9.32469 16.0802 9.66047 16.416 10.0747 16.416C10.4889 16.416 10.8247 16.0802 10.8247 15.666H9.32469ZM14.0753 12.333C14.0753 11.9188 13.7396 11.583 13.3253 11.583C12.9111 11.583 12.5753 11.9188 12.5753 12.333H14.0753ZM12.5753 15.666C12.5753 16.0802 12.9111 16.416 13.3253 16.416C13.7396 16.416 14.0753 16.0802 14.0753 15.666H12.5753ZM14.625 6.25C14.2108 6.25 13.875 6.58579 13.875 7C13.875 7.41421 14.2108 7.75 14.625 7.75V6.25ZM16.575 7.75C16.9892 7.75 17.325 7.41421 17.325 7C17.325 6.58579 16.9892 6.25 16.575 6.25V7.75ZM8.77501 7.75C9.18923 7.75 9.52501 7.41421 9.52501 7C9.52501 6.58579 9.18923 6.25 8.77501 6.25V7.75ZM6.82501 6.25C6.4108 6.25 6.07501 6.58579 6.07501 7C6.07501 7.41421 6.4108 7.75 6.82501 7.75V6.25ZM9.32469 12.333V15.666H10.8247V12.333H9.32469ZM12.5753 12.333V15.666H14.0753V12.333H12.5753ZM14.625 7.75H16.575V6.25H14.625V7.75ZM8.77501 6.25H6.82501V7.75H8.77501V6.25Z"/>
    </g>
    <g id="email">
        <svg
            viewBox="0 0 512 512"
        >
        <path d="M510.678,112.275c-2.308-11.626-7.463-22.265-14.662-31.054c-1.518-1.915-3.104-3.63-4.823-5.345
            c-12.755-12.818-30.657-20.814-50.214-20.814H71.021c-19.557,0-37.395,7.996-50.21,20.814c-1.715,1.715-3.301,3.43-4.823,5.345
            C8.785,90.009,3.63,100.649,1.386,112.275C0.464,116.762,0,121.399,0,126.087V385.92c0,9.968,2.114,19.55,5.884,28.203
            c3.497,8.26,8.653,15.734,14.926,22.001c1.59,1.586,3.169,3.044,4.892,4.494c12.286,10.175,28.145,16.32,45.319,16.32h369.958
            c17.18,0,33.108-6.145,45.323-16.384c1.718-1.386,3.305-2.844,4.891-4.43c6.27-6.267,11.425-13.741,14.994-22.001v-0.064
            c3.769-8.653,5.812-18.171,5.812-28.138V126.087C512,121.399,511.543,116.762,510.678,112.275z M46.509,101.571
            c6.345-6.338,14.866-10.175,24.512-10.175h369.958c9.646,0,18.242,3.837,24.512,10.175c1.122,1.129,2.179,2.387,3.112,3.637
            L274.696,274.203c-5.348,4.687-11.954,7.002-18.696,7.002c-6.674,0-13.276-2.315-18.695-7.002L43.472,105.136
            C44.33,103.886,45.387,102.7,46.509,101.571z M36.334,385.92V142.735L176.658,265.15L36.405,387.435
            C36.334,386.971,36.334,386.449,36.334,385.92z M440.979,420.597H71.021c-6.281,0-12.158-1.651-17.174-4.552l147.978-128.959
            l13.815,12.018c11.561,10.046,26.028,15.134,40.36,15.134c14.406,0,28.872-5.088,40.432-15.134l13.808-12.018l147.92,128.959
            C453.137,418.946,447.26,420.597,440.979,420.597z M475.666,385.92c0,0.529,0,1.051-0.068,1.515L335.346,265.221L475.666,142.8
            V385.92z"/>
        </svg>
    </g>
    <g id="password" fill="none">
        <path d="M12 14.5V16.5M7 10.0288C7.47142 10 8.05259 10 8.8 10H15.2C15.9474 10 16.5286 10 17 10.0288M7 10.0288C6.41168 10.0647 5.99429 10.1455 5.63803 10.327C5.07354 10.6146 4.6146 11.0735 4.32698 11.638C4 12.2798 4 13.1198 4 14.8V16.2C4 17.8802 4 18.7202 4.32698 19.362C4.6146 19.9265 5.07354 20.3854 5.63803 20.673C6.27976 21 7.11984 21 8.8 21H15.2C16.8802 21 17.7202 21 18.362 20.673C18.9265 20.3854 19.3854 19.9265 19.673 19.362C20 18.7202 20 17.8802 20 16.2V14.8C20 13.1198 20 12.2798 19.673 11.638C19.3854 11.0735 18.9265 10.6146 18.362 10.327C18.0057 10.1455 17.5883 10.0647 17 10.0288M7 10.0288V8C7 5.23858 9.23858 3 12 3C14.7614 3 17 5.23858 17 8V10.0288" stroke="#000000" stroke-width="2" stroke-linecap="round" stroke-linejoin="round"/>
    </g>
    <g id="user">
        <path stroke="#000" d="M12 1.2A4.8 4.8 0 1 0 16.8 6 4.805 4.805 0 0 0 12 1.2zm0 8.6A3.8 3.8 0 1 1 15.8 6 3.804 3.804 0 0 1 12 9.8zM20 22H4v-4.5A5.506 5.506 0 0 1 9.5 12h5a5.506 5.506 0 0 1 5.5 5.5zM5 21h14v-3.5a4.505 4.505 0 0 0-4.5-4.5h-5A4.505 4.505 0 0 0 5 17.5z"/><path fill="none" d="M0 0h24v24H0z"/>
    </g>
</svg>
